<mxfile host="app.diagrams.net" agent="Mozilla/5.0 (Windows NT 10.0; Win64; x64) AppleWebKit/537.36 (KHTML, like Gecko) Chrome/118.0.0.0 Safari/537.36" version="27.0.6">
  <diagram name="第 1 页" id="2hMPZHK_pVFsYMpLqJ3m">
    <mxGraphModel dx="1058" dy="688" grid="1" gridSize="10" guides="1" tooltips="1" connect="1" arrows="1" fold="1" page="1" pageScale="1" pageWidth="827" pageHeight="1169" math="0" shadow="0">
      <root>
        <mxCell id="0" />
        <mxCell id="1" parent="0" />
        <mxCell id="_bsNnyrXr3H8NdPXZoFA-1" value="stargz-snapshotter" style="rounded=0;whiteSpace=wrap;html=1;" vertex="1" parent="1">
          <mxGeometry x="190" y="250" width="120" height="30" as="geometry" />
        </mxCell>
        <mxCell id="_bsNnyrXr3H8NdPXZoFA-4" style="edgeStyle=orthogonalEdgeStyle;rounded=0;orthogonalLoop=1;jettySize=auto;html=1;exitX=0.5;exitY=1;exitDx=0;exitDy=0;entryX=0.5;entryY=0;entryDx=0;entryDy=0;" edge="1" parent="1" source="_bsNnyrXr3H8NdPXZoFA-2" target="_bsNnyrXr3H8NdPXZoFA-3">
          <mxGeometry relative="1" as="geometry" />
        </mxCell>
        <mxCell id="_bsNnyrXr3H8NdPXZoFA-6" style="edgeStyle=orthogonalEdgeStyle;rounded=0;orthogonalLoop=1;jettySize=auto;html=1;exitX=0.5;exitY=1;exitDx=0;exitDy=0;" edge="1" parent="1" source="_bsNnyrXr3H8NdPXZoFA-2" target="_bsNnyrXr3H8NdPXZoFA-5">
          <mxGeometry relative="1" as="geometry" />
        </mxCell>
        <mxCell id="_bsNnyrXr3H8NdPXZoFA-2" value="获取本地的分层文件" style="rounded=0;whiteSpace=wrap;html=1;" vertex="1" parent="1">
          <mxGeometry x="190" y="330" width="120" height="30" as="geometry" />
        </mxCell>
        <mxCell id="_bsNnyrXr3H8NdPXZoFA-3" value="Get Range bytes=xx-xx" style="rounded=0;whiteSpace=wrap;html=1;" vertex="1" parent="1">
          <mxGeometry x="290" y="410" width="140" height="30" as="geometry" />
        </mxCell>
        <mxCell id="_bsNnyrXr3H8NdPXZoFA-5" value="直接使用" style="rounded=0;whiteSpace=wrap;html=1;" vertex="1" parent="1">
          <mxGeometry x="100" y="410" width="140" height="30" as="geometry" />
        </mxCell>
      </root>
    </mxGraphModel>
  </diagram>
</mxfile>
